<svg width="100" height="30" viewBox="0 0 100 30" fill="none" xmlns="http://www.w3.org/2000/svg">
<g clip-path="url(#clip0_33_420)">
<path fill-rule="evenodd" clip-rule="evenodd" d="M62.035 23.4616C56.2455 27.7276 47.8245 30.0001 40.5613 30.0001C30.3858 30.0001 21.2631 26.2588 14.3157 20.0351C13.7894 19.5457 14.2455 18.8813 14.9121 19.2658C22.3858 23.6015 31.6139 26.1889 41.1577 26.1889C47.5788 26.1889 54.6665 24.8603 61.1928 22.098C62.175 21.7134 62.9822 22.7623 62.0349 23.4616H62.035Z" fill="#FF9900"/>
<path fill-rule="evenodd" clip-rule="evenodd" d="M64.4561 20.6994C63.7195 19.7553 59.5438 20.2448 57.6842 20.4896C57.1228 20.5595 57.0175 20.07 57.5439 19.7203C60.8772 17.3777 66.3158 18.0769 66.9474 18.8462C67.579 19.6154 66.772 25.0696 63.6486 27.6573C63.1575 28.0419 62.7013 27.8321 62.912 27.3077C63.614 25.5594 65.193 21.6781 64.4561 20.6994Z" fill="#FF9900"/>
<path fill-rule="evenodd" clip-rule="evenodd" d="M57.7895 3.28723V1.01394C57.7856 0.939421 57.7974 0.864903 57.8242 0.795226C57.851 0.72555 57.8922 0.662273 57.9451 0.609507C57.9981 0.556742 58.0616 0.515671 58.1315 0.48896C58.2014 0.462249 58.2762 0.450497 58.351 0.454468H68.5265C68.6796 0.451255 68.8279 0.508071 68.9395 0.612696C69.051 0.71732 69.1169 0.861396 69.123 1.01394V2.93702C69.123 3.2517 68.8423 3.67106 68.3511 4.37064L63.088 11.8532C65.0529 11.8182 67.1234 12.0979 68.8775 13.0766C69.2634 13.2864 69.3685 13.6361 69.4038 13.9507V16.3633C69.4038 16.713 69.0529 17.0973 68.6672 16.8878C65.5443 15.2444 61.3689 15.0696 57.9304 16.9228C57.5795 17.0976 57.1937 16.748 57.1937 16.3983V14.0908C57.1937 13.7412 57.1937 13.1121 57.5797 12.5524L63.6849 3.84617H58.3861C58.233 3.84939 58.0848 3.79264 57.9732 3.68813C57.8617 3.58362 57.7957 3.43968 57.7895 3.28723V3.28723ZM20.7019 17.3776H17.6142C17.4758 17.3637 17.3459 17.3048 17.2444 17.21C17.1429 17.1152 17.0756 16.9898 17.0527 16.8531V1.04893C17.0588 0.896413 17.1247 0.752354 17.2362 0.647732C17.3478 0.54311 17.496 0.486281 17.6492 0.489466H20.5264C20.6687 0.49161 20.805 0.546541 20.9089 0.643525C21.0127 0.740509 21.0765 0.872581 21.0878 1.01394V3.07692H21.1579C21.8946 1.08394 23.3334 0.139894 25.2281 0.139894C27.158 0.139894 28.386 1.08394 29.2282 3.07692C29.9648 1.08394 31.6843 0.139894 33.5091 0.139894C34.8074 0.139894 36.2109 0.664361 37.0881 1.88819C38.0703 3.21681 37.8601 5.13989 37.8601 6.85319V16.8532C37.854 17.0057 37.7881 17.1498 37.6766 17.2544C37.565 17.359 37.4168 17.4158 37.2636 17.4127H34.2106C33.8948 17.3777 33.6492 17.133 33.6492 16.8532V8.46149C33.6492 7.79713 33.7193 6.11883 33.579 5.48947C33.3335 4.44053 32.6668 4.12585 31.7545 4.12585C31.3517 4.13728 30.961 4.26584 30.6306 4.49571C30.3001 4.72557 30.0444 5.04671 29.8948 5.41957C29.579 6.22372 29.6141 7.55245 29.6141 8.46149V16.8532C29.608 17.0057 29.5422 17.1498 29.4306 17.2544C29.3191 17.359 29.1708 17.4158 29.0177 17.4127H25.9299C25.6142 17.3777 25.3685 17.133 25.3685 16.8532V8.46149C25.3685 6.71319 25.6492 4.09085 23.4738 4.09085C21.2633 4.09085 21.3335 6.6083 21.3335 8.46149V16.8532C21.3114 17.0027 21.2348 17.1389 21.1182 17.2357C21.0017 17.3325 20.8535 17.383 20.7019 17.3777V17.3776ZM77.8949 0.139894C82.4914 0.139894 84.9826 4.05596 84.9826 9.05596C84.9826 13.8812 82.2458 17.7272 77.8949 17.7272C73.4036 17.7272 70.9475 13.8112 70.9475 8.91606C70.9123 3.98596 73.4036 0.139469 77.8949 0.139469V0.139894ZM77.8949 3.39159C75.6141 3.39159 75.4738 6.50351 75.4738 8.42659C75.4738 10.3497 75.4387 14.4755 77.8598 14.4755C80.2458 14.4755 80.3861 11.1538 80.3861 9.12585C80.3861 7.79713 80.316 6.18883 79.9299 4.93C79.579 3.81106 78.8773 3.39159 77.8949 3.39159ZM90.9124 17.3776H87.8247C87.5089 17.3426 87.2633 17.0979 87.2633 16.8181V0.978721C87.2826 0.834339 87.3536 0.701766 87.4632 0.605401C87.5728 0.509035 87.7136 0.455361 87.8598 0.454254H90.737C90.8675 0.458839 90.9929 0.505706 91.0942 0.587743C91.1955 0.669779 91.2672 0.782509 91.2984 0.90883V3.32138H91.3686C92.2458 1.15351 93.4388 0.139572 95.5791 0.139572C96.9475 0.139572 98.3159 0.628936 99.1932 1.99277C100 3.25149 100 5.38436 100 6.92287V16.8879C99.979 17.0285 99.9063 17.1563 99.7961 17.2467C99.686 17.337 99.5461 17.3835 99.4036 17.3772H96.3156C96.035 17.3422 95.7893 17.1326 95.7542 16.8879V8.2867C95.7542 6.5384 95.9647 4.02074 93.8244 4.02074C93.0878 4.02074 92.3858 4.5101 92.0349 5.27947C91.6139 6.25819 91.5439 7.20255 91.5439 8.28649V16.8184C91.5242 16.972 91.4495 17.1133 91.3333 17.2161C91.2172 17.319 91.0676 17.3765 90.9123 17.3779L90.9124 17.3776ZM49.6845 9.82521C49.6845 11.014 49.7196 12.028 49.1231 13.1124C48.632 13.9866 47.8599 14.5111 46.9827 14.5111C45.7897 14.5111 45.088 13.602 45.088 12.2733C45.088 9.65096 47.4389 9.16138 49.6845 9.16138V9.82521ZM52.8073 17.3427C52.7073 17.4296 52.5825 17.4832 52.4503 17.4957C52.3182 17.5083 52.1854 17.4792 52.0707 17.4126C51.0532 16.5734 50.843 16.1538 50.2813 15.3496C48.5971 17.0623 47.369 17.5873 45.1936 17.5873C42.5971 17.5873 40.562 15.9789 40.562 12.7971C40.562 10.2797 41.9304 8.60138 43.8607 7.76213C45.5449 7.02808 47.8961 6.88798 49.6852 6.67819V6.29362C49.6852 5.55957 49.7554 4.68521 49.2993 4.05585C48.9134 3.49638 48.2116 3.2517 47.5806 3.2517C46.3875 3.2517 45.3349 3.84606 45.0893 5.10489C45.0191 5.38457 44.8437 5.66436 44.563 5.66436L41.5805 5.34968C41.335 5.27979 41.0542 5.105 41.1244 4.72032C41.8261 1.08394 45.0893 0 48.0366 0C49.5454 0 51.5102 0.384574 52.7032 1.5384C54.212 2.93702 54.0717 4.82564 54.0717 6.85309V11.6433C54.0717 13.0769 54.6681 13.7063 55.2295 14.5104C55.4401 14.7901 55.4751 15.1398 55.2295 15.3146C54.5628 15.839 53.4401 16.8181 52.8085 17.3426L52.8073 17.3427ZM9.158 9.82521C9.158 11.014 9.19313 12.028 8.59657 13.1124C8.10549 13.9866 7.33343 14.5111 6.45621 14.5111C5.26321 14.5111 4.5615 13.602 4.5615 12.2733C4.5615 9.65096 6.91238 9.16138 9.158 9.16138V9.82521ZM12.2457 17.3427C12.1457 17.4296 12.0208 17.4832 11.8887 17.4957C11.7565 17.5083 11.6238 17.4792 11.5091 17.4126C10.4916 16.5734 10.2814 16.1538 9.71965 15.3496C8.03546 17.0623 6.80734 17.5873 4.63196 17.5873C2.03544 17.5873 0.000341415 15.9789 0.000341415 12.7971C0.000341415 10.2797 1.36874 8.60138 3.29911 7.76213C4.9833 7.02808 7.3345 6.88798 9.12363 6.67819V6.29362C9.12363 5.55957 9.19376 4.68521 8.7377 4.05585C8.35178 3.49638 7.64996 3.2517 7.01893 3.2517C5.82593 3.2517 4.77331 3.84606 4.52766 5.10489C4.45752 5.38457 4.28212 5.66436 4.00135 5.66436L1.0189 5.34968C0.773364 5.27979 0.492595 5.105 0.562734 4.72032C1.26444 1.08394 4.52766 0 7.47499 0C8.98378 0 10.9486 0.384574 12.1416 1.5384C13.6504 2.93702 13.51 4.82564 13.51 6.85309V11.6433C13.51 13.0769 14.1065 13.7063 14.6679 14.5104C14.8784 14.7901 14.9134 15.1398 14.6679 15.3146C14.0012 15.839 12.8785 16.8181 12.2469 17.3426L12.2457 17.3427Z" fill="white"/>
</g>
<defs>
<clipPath id="clip0_33_420">
<rect width="100" height="30" fill="white"/>
</clipPath>
</defs>
</svg>
