<svg width="16" height="17" viewBox="0 0 16 17" fill="none" xmlns="http://www.w3.org/2000/svg">
<path fill-rule="evenodd" clip-rule="evenodd" d="M2.82608 7.42753C2.83569 4.60048 5.13525 2.31648 7.96231 2.32606C10.7894 2.33569 13.0734 4.63526 13.0638 7.46232V7.52029C13.029 9.35797 12.0029 11.0565 10.7449 12.3841C10.0255 13.1311 9.22208 13.7925 8.35072 14.3551C8.11772 14.5566 7.77212 14.5566 7.53912 14.3551C6.24013 13.5096 5.10004 12.4421 4.17101 11.2014C3.34298 10.1196 2.87286 8.80649 2.82608 7.44493V7.42753Z" stroke="white" stroke-width="1.5" stroke-linecap="round" stroke-linejoin="round"/>
<path d="M7.94467 9.16666C8.85078 9.16666 9.58534 8.43211 9.58534 7.526C9.58534 6.61988 8.85078 5.88533 7.94467 5.88533C7.03855 5.88533 6.304 6.61988 6.304 7.526C6.304 8.43211 7.03855 9.16666 7.94467 9.16666Z" stroke="white" stroke-width="1.5" stroke-linecap="round" stroke-linejoin="round"/>
</svg>
