<svg width="45" height="40" viewBox="0 0 45 40" fill="none" xmlns="http://www.w3.org/2000/svg">
<path d="M0 0H41C43.2091 0 45 1.79086 45 4V36C45 38.2091 43.2091 40 41 40H0V0Z" fill="#F4BF76"/>
<path d="M14.624 23C16.0087 24.3867 17.8528 25.2191 19.8087 25.3405C21.7646 25.4619 23.6974 24.8638 25.243 23.659L30.561 28.977C30.7496 29.1592 31.0022 29.26 31.2644 29.2577C31.5266 29.2554 31.7774 29.1502 31.9628 28.9648C32.1482 28.7794 32.2534 28.5286 32.2557 28.2664C32.2579 28.0042 32.1571 27.7516 31.975 27.563L26.657 22.245C27.9153 20.6302 28.5102 18.5961 28.3204 16.5578C28.1305 14.5194 27.1703 12.6302 25.6355 11.2755C24.1006 9.92073 22.1068 9.20251 20.0606 9.26728C18.0145 9.33204 16.0701 10.1749 14.624 11.624C13.8768 12.3708 13.284 13.2575 12.8796 14.2335C12.4752 15.2095 12.2671 16.2556 12.2671 17.312C12.2671 18.3684 12.4752 19.4145 12.8796 20.3905C13.284 21.3665 13.8768 22.2532 14.624 23V23ZM16.038 13.04C17.0266 12.0514 18.3273 11.4362 19.7186 11.2992C21.1099 11.1622 22.5057 11.5117 23.6681 12.2884C24.8306 13.0651 25.6878 14.2208 26.0937 15.5586C26.4996 16.8964 26.4291 18.3336 25.8941 19.6253C25.3592 20.9169 24.393 21.9831 23.1601 22.6423C21.9272 23.3014 20.5039 23.5127 19.1327 23.2401C17.7615 22.9675 16.5272 22.2279 15.6402 21.1473C14.7531 20.0668 14.2682 18.712 14.268 17.314C14.2652 16.5196 14.4203 15.7325 14.7241 14.9985C15.028 14.2645 15.4746 13.5981 16.038 13.038V13.04Z" fill="#18191A"/>
</svg>
